# xmcd
#
# Track frame offsets: 
#        150
#        21270
#        39092
#        56892
#        70952
#        83925
#        99230
#        118642
#        132932
#        150155
#
# Disc length: 2226 seconds
#
# Revision: 1
# Processed by: cddbd v1.5.2PL0 Copyright (c) Steve Scherf et al.
# Submitted via: ExactAudioCopy v1.0b3
#
DISCID=7708b00a
DTITLE=黃韻玲 - 沒有你的聖誕節
DYEAR=1988
DGENRE=Pop
TTITLE0=沒有你的聖誕節
TTITLE1=情願寂寞
TTITLE2=羅曼史
TTITLE3=時髦寵兒
TTITLE4=日復一日
TTITLE5=黃色點唱機
TTITLE6=我不在乎
TTITLE7=帶電女孩
TTITLE8=水晶球
TTITLE9=童年往事
EXTD=
EXTT0=
EXTT1=
EXTT2=
EXTT3=
EXTT4=
EXTT5=
EXTT6=
EXTT7=
EXTT8=
EXTT9=
PLAYORDER=
